<svg height="512pt" viewBox="0 0 512 512" width="512pt" xmlns="http://www.w3.org/2000/svg"><path d="m227.855469 376.839844h-92.695313v-56.480469l5.429688 5.429687c5.855468 5.855469 15.351562 5.855469 21.210937 0 5.859375-5.859374 5.859375-15.355468 0-21.214843l-31.035156-31.035157c-4.289063-4.289062-10.742187-5.570312-16.347656-3.25-5.605469 2.320313-9.257813 7.789063-9.257813 13.855469v107.695313c0 8.285156 6.714844 15 15 15h107.695313c8.28125 0 15-6.714844 15-15 0-8.28125-6.714844-15-15-15zm0 0"/><path d="m284.144531 135.160156h92.695313v56.480469l-5.429688-5.429687c-5.855468-5.855469-15.351562-5.855469-21.210937 0-5.859375 5.859374-5.859375 15.355468 0 21.214843l31.035156 31.035157c2.867187 2.867187 6.707031 4.394531 10.609375 4.394531 1.933594 0 3.882812-.375 5.734375-1.144531 5.605469-2.320313 9.261719-7.789063 9.261719-13.855469v-107.695313c0-8.285156-6.714844-15-15-15h-107.695313c-8.28125 0-15 6.714844-15 15 0 8.28125 6.714844 15 15 15zm0 0"/><path d="m497 271.683594h-210.316406c-8.285156 0-15 6.714844-15 15v210.316406c0 8.285156 6.714844 15 15 15h210.316406c8.285156 0 15-6.714844 15-15v-210.316406c0-8.285156-6.714844-15-15-15zm-15 210.316406h-180.316406v-180.316406h180.316406zm0 0"/><path d="m422.535156 458.136719h.957032c6.339843 0 11.496093-5.15625 11.496093-11.496094v-49.746094h9.179688c6.339843 0 11.496093-5.15625 11.496093-11.496093 0-6.339844-5.15625-11.496094-11.496093-11.496094h-9.179688v-36.863282c0-6.339843-5.15625-11.496093-11.496093-11.496093h-.957032c-6.339844 0-11.496094 5.15625-11.496094 11.496093v109.605469c0 6.335938 5.15625 11.492188 11.496094 11.492188zm0 0"/><path d="m332.132812 424.460938c2.21875 3.234374 5.828126 5 9.507813 5 1.996094 0 4.011719-.519532 5.835937-1.609376 6.964844-4.148437 13.457032-8.820312 19.304688-13.886718 6.652344-5.769532 12.480469-12.226563 17.324219-19.191406 4.882812-7.03125 8.785156-14.769532 11.605469-23.011719 2.480468-7.242188 4.042968-15.0625 4.652343-23.238281.238281-3.1875-.875-6.355469-3.046875-8.699219-2.167968-2.335938-5.238281-3.671875-8.421875-3.671875h-46.859375c-6.339844 0-11.496094 5.15625-11.496094 11.496094 0 6.335937 5.15625 11.496093 11.496094 11.496093h32.730469c-.828125 3.386719-1.910156 6.636719-3.230469 9.707031-2.546875 5.910157-5.824218 11.394532-9.746094 16.3125-3.960937 4.964844-8.574218 9.476563-13.714843 13.410157-4 3.066406-8.273438 5.839843-12.703125 8.25-2.839844 1.550781-4.902344 4.242187-5.660156 7.394531-.757813 3.15625-.140626 6.503906 1.695312 9.183594zm0 0"/><path d="m240.316406 225.316406v-210.316406c0-8.285156-6.714844-15-15-15h-210.316406c-8.285156 0-15 6.714844-15 15v210.316406c0 8.285156 6.714844 15 15 15h210.316406c8.285156 0 15-6.714844 15-15zm-30-15h-180.316406v-180.316406h180.316406zm0 0"/><path d="m79.5 181.988281h3.871094c4.8125 0 9.152344-3.039062 10.796875-7.5625l8.851562-24.339843h34.042969l9.101562 24.425781c1.667969 4.472656 5.992188 7.480469 10.769532 7.480469h3.894531c3.773437 0 7.308594-1.855469 9.453125-4.957032 2.144531-3.101562 2.628906-7.0625 1.296875-10.589844l-37.988281-100.683593c-1.679688-4.445313-5.996094-7.433594-10.75-7.433594h-5.148438c-4.742187 0-9.0625 2.980469-10.742187 7.414063l-38.195313 100.6875c-1.335937 3.527343-.855468 7.492187 1.289063 10.597656 2.144531 3.109375 5.679687 4.960937 9.457031 4.960937zm40.535156-79.078125 7.746094 21.691406h-15.441406c2.425781-6.792968 5.179687-14.578124 7.695312-21.691406zm0 0"/></svg>